<svg width="19" height="19" viewBox="0 0 19 19" fill="none" xmlns="http://www.w3.org/2000/svg">
<path d="M9.34163 8.62917C7.54455 8.16208 6.96663 7.67917 6.96663 6.92708C6.96663 6.06417 7.76621 5.4625 9.10413 5.4625C10.5133 5.4625 11.0358 6.13542 11.0833 7.125H12.8329C12.7775 5.76333 11.9462 4.5125 10.2916 4.10875V2.375H7.91663V4.085C6.3808 4.4175 5.1458 5.415 5.1458 6.94292C5.1458 8.77167 6.65788 9.68208 8.86663 10.2125C10.8458 10.6875 11.2416 11.3842 11.2416 12.1204C11.2416 12.6667 10.8537 13.5375 9.10413 13.5375C7.4733 13.5375 6.83205 12.8092 6.74496 11.875H5.0033C5.0983 13.6088 6.39663 14.5825 7.91663 14.9071V16.625H10.2916V14.9229C11.8354 14.63 13.0625 13.7354 13.0625 12.1125C13.0625 9.86417 11.1387 9.09625 9.34163 8.62917Z" fill="#333333"/>
</svg>
