<svg width="24" height="28" viewBox="0 0 24 28" fill="none" xmlns="http://www.w3.org/2000/svg">
<path d="M23.5312 10.9531C22.4531 11.7969 21.0938 12.8281 16.3125 16.2969C15.375 17 13.6406 18.5469 12 18.5469C10.3125 18.5469 8.625 17 7.64062 16.2969C2.85938 12.8281 1.5 11.7969 0.421875 10.9531C0.234375 10.8125 0 10.9531 0 11.1875V20.75C0 22.0156 0.984375 23 2.25 23H21.75C22.9688 23 24 22.0156 24 20.75V11.1875C24 10.9531 23.7188 10.8125 23.5312 10.9531ZM12 17C13.0781 17.0469 14.625 15.6406 15.4219 15.0781C21.6562 10.5781 22.125 10.1562 23.5312 9.03125C23.8125 8.84375 24 8.51562 24 8.14062V7.25C24 6.03125 22.9688 5 21.75 5H2.25C0.984375 5 0 6.03125 0 7.25V8.14062C0 8.51562 0.140625 8.84375 0.421875 9.03125C1.82812 10.1562 2.29688 10.5781 8.53125 15.0781C9.32812 15.6406 10.875 17.0469 12 17Z" fill="#30C672"/>
</svg>
