<svg width="24" height="24" viewBox="0 0 24 24" fill="none" xmlns="http://www.w3.org/2000/svg">
<path d="M0 12C0 5.37258 5.37258 0 12 0V0C18.6274 0 24 5.37258 24 12V12C24 18.6274 18.6274 24 12 24V24C5.37258 24 0 18.6274 0 12V12Z" fill="#30C672"/>
<path d="M14.7891 13.25L15.1172 11.0938H13.0312V9.6875C13.0312 9.07812 13.3125 8.51562 14.25 8.51562H15.2109V6.66406C15.2109 6.66406 14.3438 6.5 13.5234 6.5C11.8125 6.5 10.6875 7.55469 10.6875 9.42969V11.0938H8.76562V13.25H10.6875V18.5H13.0312V13.25H14.7891Z" fill="white"/>
</svg>
