<svg width="24" height="24" viewBox="0 0 24 24" fill="none" xmlns="http://www.w3.org/2000/svg">
<path d="M0 12C0 5.37258 5.37258 0 12 0V0C18.6274 0 24 5.37258 24 12V12C24 18.6274 18.6274 24 12 24V24C5.37258 24 0 18.6274 0 12V12Z" fill="#30C672"/>
<path d="M12 9.80469C10.5 9.80469 9.30469 11.0234 9.30469 12.5C9.30469 14 10.5 15.1953 12 15.1953C13.4766 15.1953 14.6953 14 14.6953 12.5C14.6953 11.0234 13.4766 9.80469 12 9.80469ZM12 14.2578C11.0391 14.2578 10.2422 13.4844 10.2422 12.5C10.2422 11.5391 11.0156 10.7656 12 10.7656C12.9609 10.7656 13.7344 11.5391 13.7344 12.5C13.7344 13.4844 12.9609 14.2578 12 14.2578ZM15.4219 9.71094C15.4219 9.35938 15.1406 9.07812 14.7891 9.07812C14.4375 9.07812 14.1562 9.35938 14.1562 9.71094C14.1562 10.0625 14.4375 10.3438 14.7891 10.3438C15.1406 10.3438 15.4219 10.0625 15.4219 9.71094ZM17.2031 10.3438C17.1562 9.5 16.9688 8.75 16.3594 8.14062C15.75 7.53125 15 7.34375 14.1562 7.29688C13.2891 7.25 10.6875 7.25 9.82031 7.29688C8.97656 7.34375 8.25 7.53125 7.61719 8.14062C7.00781 8.75 6.82031 9.5 6.77344 10.3438C6.72656 11.2109 6.72656 13.8125 6.77344 14.6797C6.82031 15.5234 7.00781 16.25 7.61719 16.8828C8.25 17.4922 8.97656 17.6797 9.82031 17.7266C10.6875 17.7734 13.2891 17.7734 14.1562 17.7266C15 17.6797 15.75 17.4922 16.3594 16.8828C16.9688 16.25 17.1562 15.5234 17.2031 14.6797C17.25 13.8125 17.25 11.2109 17.2031 10.3438ZM16.0781 15.5938C15.9141 16.0625 15.5391 16.4141 15.0938 16.6016C14.3906 16.8828 12.75 16.8125 12 16.8125C11.2266 16.8125 9.58594 16.8828 8.90625 16.6016C8.4375 16.4141 8.08594 16.0625 7.89844 15.5938C7.61719 14.9141 7.6875 13.2734 7.6875 12.5C7.6875 11.75 7.61719 10.1094 7.89844 9.40625C8.08594 8.96094 8.4375 8.60938 8.90625 8.42188C9.58594 8.14062 11.2266 8.21094 12 8.21094C12.75 8.21094 14.3906 8.14062 15.0938 8.42188C15.5391 8.58594 15.8906 8.96094 16.0781 9.40625C16.3594 10.1094 16.2891 11.75 16.2891 12.5C16.2891 13.2734 16.3594 14.9141 16.0781 15.5938Z" fill="white"/>
</svg>
