<svg width="24" height="24" viewBox="0 0 24 24" fill="none" xmlns="http://www.w3.org/2000/svg">
<path d="M0 12C0 5.37258 5.37258 0 12 0V0C18.6274 0 24 5.37258 24 12V12C24 18.6274 18.6274 24 12 24V24C5.37258 24 0 18.6274 0 12V12Z" fill="#30C672"/>
<path d="M9.09375 17V9.99219H6.91406V17H9.09375ZM7.99219 9.05469C8.69531 9.05469 9.25781 8.46875 9.25781 7.76562C9.25781 7.08594 8.69531 6.52344 7.99219 6.52344C7.3125 6.52344 6.75 7.08594 6.75 7.76562C6.75 8.46875 7.3125 9.05469 7.99219 9.05469ZM17.2266 17H17.25V13.1562C17.25 11.2812 16.8281 9.82812 14.625 9.82812C13.5703 9.82812 12.8672 10.4141 12.5625 10.9531H12.5391V9.99219H10.4531V17H12.6328V13.5312C12.6328 12.6172 12.7969 11.75 13.9219 11.75C15.0469 11.75 15.0703 12.7812 15.0703 13.6016V17H17.2266Z" fill="white"/>
</svg>
