<svg width="19" height="19" viewBox="0 0 19 19" fill="none" xmlns="http://www.w3.org/2000/svg">
<path d="M15.8334 6.33332H13.4584V3.16666H2.37502C1.50419 3.16666 0.791687 3.87916 0.791687 4.74999V13.4583H2.37502C2.37502 14.7725 3.43585 15.8333 4.75002 15.8333C6.06419 15.8333 7.12502 14.7725 7.12502 13.4583H11.875C11.875 14.7725 12.9359 15.8333 14.25 15.8333C15.5642 15.8333 16.625 14.7725 16.625 13.4583H18.2084V9.49999L15.8334 6.33332ZM4.75002 14.6458C4.09294 14.6458 3.56252 14.1154 3.56252 13.4583C3.56252 12.8012 4.09294 12.2708 4.75002 12.2708C5.4071 12.2708 5.93752 12.8012 5.93752 13.4583C5.93752 14.1154 5.4071 14.6458 4.75002 14.6458ZM15.4375 7.52082L16.9892 9.49999H13.4584V7.52082H15.4375ZM14.25 14.6458C13.5929 14.6458 13.0625 14.1154 13.0625 13.4583C13.0625 12.8012 13.5929 12.2708 14.25 12.2708C14.9071 12.2708 15.4375 12.8012 15.4375 13.4583C15.4375 14.1154 14.9071 14.6458 14.25 14.6458Z" fill="#333333"/>
</svg>
