<svg width="77" height="46" viewBox="0 0 77 46" fill="none" xmlns="http://www.w3.org/2000/svg">
<path d="M40.0893 8.6886L36.0798 9.44731C36.3323 8.57339 36.3923 7.65506 36.2554 6.75573C35.8985 5.1876 34.94 3.82236 33.5864 2.95403C32.2327 2.0857 30.5922 1.78373 29.018 2.11317C27.1515 2.55031 25.4388 3.4861 24.0625 4.82064C22.6863 6.15517 21.6983 7.83837 21.204 9.69055C20.0767 8.15014 18.5521 6.9449 16.7931 6.20359C15.0341 5.46227 13.1067 5.21272 11.2169 5.48161C11.1533 5.49364 11.0897 5.50568 11.0261 5.51772C9.46926 5.81489 8.08831 6.7041 7.17354 7.99839C6.25878 9.29268 5.88147 10.8912 6.12094 12.458L6.14185 12.5685C6.33624 13.417 6.71116 14.2137 7.24108 14.9044L3.2583 15.658C2.81429 15.742 2.42185 15.999 2.1673 16.3723C1.91274 16.7457 1.81694 17.2049 1.90096 17.6489L2.85133 22.6713C2.93535 23.1153 3.19231 23.5078 3.56568 23.7623C3.93905 24.0169 4.39825 24.1127 4.84226 24.0287L41.6733 17.0593C42.1173 16.9753 42.5097 16.7183 42.7643 16.3449C43.0188 15.9716 43.1146 15.5124 43.0306 15.0684L42.0802 10.0459C41.9962 9.60193 41.7393 9.20949 41.3659 8.95494C40.9925 8.70038 40.5333 8.60458 40.0893 8.6886ZM29.7035 5.45162C30.3839 5.30449 31.0949 5.42325 31.6906 5.78354C32.2862 6.14383 32.7215 6.71835 32.9071 7.38931C33.0131 8.07906 32.8484 8.78306 32.4476 9.35428C32.0467 9.92551 31.4407 10.3198 30.756 10.4547L24.1482 11.7051C24.7907 9.4003 26.31 6.09376 29.7035 5.45162ZM9.47967 11.8796C9.39289 11.1864 9.57554 10.4864 9.98992 9.92397C10.4043 9.36155 11.0188 8.97966 11.7065 8.85712C15.1729 8.21508 17.7477 10.7157 19.2028 12.6409L12.6737 13.8764C11.9872 14.0116 11.275 13.8805 10.6818 13.5096C10.0886 13.1387 9.65874 12.556 9.47967 11.8796Z" fill="#30C672"/>
<path d="M26.8539 25.4473V45.8934H35.3731C36.7288 45.8934 38.0289 45.3549 38.9875 44.3963C39.9461 43.4377 40.4846 42.1376 40.4846 40.7819V25.4473H26.8539Z" fill="#30C672"/>
<path d="M20.0386 25.4473H6.40784V40.7819C6.40784 42.1376 6.94637 43.4377 7.90497 44.3963C8.86357 45.3549 10.1637 45.8934 11.5194 45.8934H20.0386V25.4473Z" fill="#30C672"/>
<path d="M45 18.476C46.4653 17.2343 48.3399 16.2769 49.2884 14.5525C49.6264 13.9379 49.8153 13.3087 49.8153 12.6028C49.8153 11.8273 49.6694 11.0711 49.6694 10.3046C49.6694 9.67034 49.63 9.31005 50.1072 8.84541C50.6678 8.2995 51.4147 7.98256 52.1541 7.75508C53.4279 7.36312 54.7726 7.29794 56.0574 6.94847C56.9595 6.7031 57.8085 6.41746 58.6434 6" stroke="#30C672" stroke-width="3" stroke-linecap="round"/>
<path d="M46 24.47C47.7859 24.9602 49.777 25.3286 51.6565 25.1783C52.475 25.1128 53.0748 24.2674 53.5388 23.6874C54.2455 22.804 54.9124 21.7918 55.4012 20.7699C55.7106 20.123 56.1114 19.3471 56.7187 18.9422C58.6357 17.6642 61.0855 17.5452 63.3164 17.3175C66.3661 17.0064 69.4017 16.5978 72.3906 16" stroke="#30C672" stroke-width="3" stroke-linecap="round"/>
<path d="M57 13.0627C57.8651 12.7656 58.7085 12.3572 59.5955 12.1266C60.6871 11.8427 61.7847 11.618 62.8844 11.3737C64.1061 11.1022 65.836 11.0294 66.7627 10.0314C67.1554 9.60854 67.6916 9.09582 67.8574 8.51568C67.9448 8.2099 68.0318 7.9066 68.1249 7.60429C68.1933 7.38197 68.0998 7.20113 68.2338 7" stroke="#30C672" stroke-width="3" stroke-linecap="round"/>
<path d="M61 24.0056C62.5715 24.0056 64.083 23.2147 65.6532 23.0734C66.7677 22.973 68.0758 22.9377 69.1552 23.2193C69.383 23.2787 69.5584 23.457 69.7713 23.5516C70.1 23.6977 70.4196 23.8362 70.7401 24.0016C71.2915 24.2862 71.9774 24.5076 72.6005 24.5163C73.7207 24.5321 74.4821 24.3536 75.373 23.6408" stroke="#30C672" stroke-width="3" stroke-linecap="round"/>
</svg>
