<svg width="25" height="28" viewBox="0 0 25 28" fill="none" xmlns="http://www.w3.org/2000/svg">
<path d="M24.1094 3.17188L19.2344 2.04688C18.7188 1.90625 18.1562 2.1875 17.9219 2.70312L15.6719 7.95312C15.4844 8.42188 15.625 8.9375 16 9.26562L18.8594 11.6094C17.1719 15.1719 14.2188 18.1719 10.5625 19.9062L8.21875 17.0469C7.89062 16.6719 7.375 16.5312 6.90625 16.7188L1.65625 18.9688C1.14062 19.2031 0.90625 19.7656 1 20.2812L2.125 25.1562C2.26562 25.6719 2.6875 26 3.25 26C15.25 26 25 16.2969 25 4.25C25 3.73438 24.625 3.3125 24.1094 3.17188Z" fill="#30C672"/>
</svg>
