<svg width="19" height="19" viewBox="0 0 19 19" fill="none" xmlns="http://www.w3.org/2000/svg">
<path d="M14.25 6.33334C14.25 3.71293 12.1204 1.58334 9.49998 1.58334C6.87956 1.58334 4.74998 3.71293 4.74998 6.33334C4.74998 9.89584 9.49998 15.0417 9.49998 15.0417C9.49998 15.0417 14.25 9.89584 14.25 6.33334ZM7.91665 6.33334C7.91665 5.46251 8.62915 4.75001 9.49998 4.75001C10.3708 4.75001 11.0833 5.46251 11.0833 6.33334C11.0833 7.20418 10.3787 7.91668 9.49998 7.91668C8.62915 7.91668 7.91665 7.20418 7.91665 6.33334ZM3.95831 15.8333V17.4167H15.0416V15.8333H3.95831Z" fill="#333333"/>
</svg>
