<svg width="24" height="24" viewBox="0 0 24 24" fill="none" xmlns="http://www.w3.org/2000/svg">
<path d="M0 12C0 5.37258 5.37258 0 12 0V0C18.6274 0 24 5.37258 24 12V12C24 18.6274 18.6274 24 12 24V24C5.37258 24 0 18.6274 0 12V12Z" fill="#30C672"/>
<path d="M16.7578 10.0625C17.2266 9.71094 17.6484 9.28906 17.9766 8.79688C17.5547 8.98438 17.0625 9.125 16.5703 9.17188C17.0859 8.86719 17.4609 8.39844 17.6484 7.8125C17.1797 8.09375 16.6406 8.30469 16.1016 8.42188C15.6328 7.92969 15 7.64844 14.2969 7.64844C12.9375 7.64844 11.8359 8.75 11.8359 10.1094C11.8359 10.2969 11.8594 10.4844 11.9062 10.6719C9.86719 10.5547 8.03906 9.57031 6.82031 8.09375C6.60938 8.44531 6.49219 8.86719 6.49219 9.33594C6.49219 10.1797 6.91406 10.9297 7.59375 11.375C7.19531 11.3516 6.79688 11.2578 6.46875 11.0703V11.0938C6.46875 12.2891 7.3125 13.2734 8.4375 13.5078C8.25 13.5547 8.01562 13.6016 7.80469 13.6016C7.64062 13.6016 7.5 13.5781 7.33594 13.5547C7.64062 14.5391 8.55469 15.2422 9.63281 15.2656C8.78906 15.9219 7.73438 16.3203 6.58594 16.3203C6.375 16.3203 6.1875 16.2969 6 16.2734C7.07812 16.9766 8.36719 17.375 9.77344 17.375C14.2969 17.375 16.7578 13.6484 16.7578 10.3906C16.7578 10.2734 16.7578 10.1797 16.7578 10.0625Z" fill="white"/>
</svg>
